<svg width="19" height="12" viewBox="0 0 19 12" fill="none" xmlns="http://www.w3.org/2000/svg">
<g opacity="0.5">
<path d="M1.21607 7.92252C2.05596 3.99227 5.56057 1.2 9.49996 1.2C13.4394 1.2 16.9439 3.99226 17.7838 7.92252C17.8533 8.247 18.1787 8.45508 18.5108 8.3874C18.8431 8.3196 19.0562 8.00184 18.9869 7.67748C18.0316 3.20774 14.0388 0 9.49996 0C4.96115 0 0.968237 3.20773 0.0130766 7.67748C-0.0562332 8.00184 0.15687 8.3196 0.489066 8.3874C0.821261 8.45508 1.14675 8.247 1.21607 7.92252Z" fill="#212121"/>
<path d="M9.49996 3.6C7.1245 3.6 5.19881 5.4804 5.19881 7.8C5.19881 10.1196 7.1245 12 9.49996 12C11.8754 12 13.8011 10.1196 13.8011 7.8C13.8011 5.4804 11.8754 3.6 9.49996 3.6ZM6.42771 7.8C6.42771 6.14316 7.80321 4.8 9.49996 4.8C11.1967 4.8 12.5722 6.14316 12.5722 7.8C12.5722 9.45684 11.1967 10.8 9.49996 10.8C7.80321 10.8 6.42771 9.45684 6.42771 7.8Z" fill="#212121"/>
</g>
</svg>
