<svg width="56" height="56" viewBox="0 0 56 56" fill="none" xmlns="http://www.w3.org/2000/svg">
<path d="M56 28C56 12.536 43.464 0 28 0C12.536 0 0 12.536 0 28C0 41.9754 10.2391 53.5593 23.625 55.6598V36.0938H16.5156V28H23.625V21.8313C23.625 14.8138 27.8053 10.9375 34.201 10.9375C37.2635 10.9375 40.4688 11.4844 40.4688 11.4844V18.375H36.9381C33.46 18.375 32.375 20.5335 32.375 22.75V28H40.1406L38.8992 36.0938H32.375V55.6598C45.7609 53.5593 56 41.9754 56 28Z" fill="#1877F2"/>
<path d="M38.8992 36.0938L40.1406 28H32.375V22.75C32.375 20.5357 33.46 18.375 36.9381 18.375H40.4688V11.4844C40.4688 11.4844 37.2646 10.9375 34.201 10.9375C27.8053 10.9375 23.625 14.8138 23.625 21.8313V28H16.5156V36.0938H23.625V55.6598C26.524 56.1134 29.476 56.1134 32.375 55.6598V36.0938H38.8992Z" fill="white"/>
</svg>
