<svg width="53" height="53" viewBox="0 0 53 53" fill="none" xmlns="http://www.w3.org/2000/svg">
<g clip-path="url(#clip0_110_7019)">
<path d="M52.4833 27.1104C52.4833 25.309 52.3372 23.4979 52.0256 21.7257H27.03V31.9304H41.3438C40.7499 35.2216 38.8413 38.133 36.0467 39.9831V46.6044H44.5863C49.6011 41.989 52.4833 35.1729 52.4833 27.1104Z" fill="#4285F4"/>
<path d="M27.03 53.0018C34.1771 53.0018 40.2045 50.6551 44.596 46.6044L36.0564 39.9831C33.6805 41.5995 30.6133 42.5148 27.0397 42.5148C20.1262 42.5148 14.2644 37.8506 12.1612 31.5798H3.34892V38.4056C7.84754 47.3542 17.0103 53.0018 27.03 53.0018Z" fill="#34A853"/>
<path d="M12.1514 31.5798C11.0414 28.2886 11.0414 24.7248 12.1514 21.4336V14.6077H3.34894C-0.409648 22.0957 -0.409648 30.9177 3.34894 38.4056L12.1514 31.5798Z" fill="#FBBC04"/>
<path d="M27.03 10.4888C30.808 10.4304 34.4595 11.8521 37.1957 14.4616L44.7616 6.89578C39.9708 2.39716 33.6124 -0.0761124 27.03 0.0017858C17.0103 0.0017858 7.84754 5.64941 3.34892 14.6077L12.1514 21.4335C14.2449 15.153 20.1165 10.4888 27.03 10.4888Z" fill="#EA4335"/>
</g>
<defs>
<clipPath id="clip0_110_7019">
<rect width="53" height="53" fill="white"/>
</clipPath>
</defs>
</svg>
