<svg width="14" height="13" viewBox="0 0 14 13" fill="none" xmlns="http://www.w3.org/2000/svg">
<path opacity="0.5" d="M7.4492 12.0841L7.34949 11.8802C8.31641 11.2839 9.23004 10.596 10.0792 9.82504L10.0805 9.82384C11.6656 8.37444 13.1875 6.39622 13.1875 4.17863C13.1875 2.22602 11.754 0.892876 10.2812 0.892876C8.8099 0.892876 7.56223 2.00562 7.14815 3.54318C7.13561 3.58963 7.11058 3.62507 7.08268 3.64738C7.05534 3.66926 7.02625 3.67813 7 3.67813C6.97375 3.67813 6.94466 3.66926 6.91732 3.64738C6.88942 3.62507 6.86439 3.58963 6.85185 3.54318C6.43776 2.00562 5.1901 0.892876 3.71875 0.892876C2.24603 0.892876 0.8125 2.22602 0.8125 4.17863C0.8125 6.39622 2.33437 8.37444 3.91947 9.82384L3.92079 9.82504C4.76995 10.5959 5.68353 11.2838 6.65039 11.8801L6.55067 12.0844L6.48661 12.2157C5.51364 11.613 4.59314 10.9185 3.73634 10.1403C2.14931 8.68753 0.5 6.60347 0.5 4.17863C0.5 1.95261 2.12897 0.5 3.71875 0.5C4.87807 0.5 5.91802 1.13681 6.58179 2.14978L7 2.78801L7.41821 2.14978C8.08198 1.13681 9.12193 0.5 10.2812 0.5C11.871 0.5 13.5 1.95261 13.5 4.17863C13.5 6.60339 11.8508 8.68739 10.2638 10.1402C9.40644 10.9179 8.48556 11.6117 7.51248 12.2136L7.4492 12.0841Z" fill="black" stroke="black"/>
</svg>
