<svg width="20" height="20" viewBox="0 0 20 20" fill="none" xmlns="http://www.w3.org/2000/svg">
<g opacity="0.5">
<path d="M9.16669 5.83342H10.8334V7.50008H9.16669V5.83342ZM10 14.1667C10.4584 14.1667 10.8334 13.7917 10.8334 13.3334V10.0001C10.8334 9.54175 10.4584 9.16675 10 9.16675C9.54169 9.16675 9.16669 9.54175 9.16669 10.0001V13.3334C9.16669 13.7917 9.54169 14.1667 10 14.1667ZM10 1.66675C5.40002 1.66675 1.66669 5.40008 1.66669 10.0001C1.66669 14.6001 5.40002 18.3334 10 18.3334C14.6 18.3334 18.3334 14.6001 18.3334 10.0001C18.3334 5.40008 14.6 1.66675 10 1.66675ZM10 16.6667C6.32502 16.6667 3.33335 13.6751 3.33335 10.0001C3.33335 6.32508 6.32502 3.33341 10 3.33341C13.675 3.33341 16.6667 6.32508 16.6667 10.0001C16.6667 13.6751 13.675 16.6667 10 16.6667Z" fill="black"/>
</g>
</svg>
