<svg width="535" height="475" viewBox="0 0 535 475" fill="none" xmlns="http://www.w3.org/2000/svg">
<circle cx="260.5" cy="237.5" r="237.5" fill="#C4C4C4" fill-opacity="0.2"/>
<path d="M534.763 387.163H0V387.43H534.763V387.163Z" fill="#E6E6E6"/>
<path d="M114.268 397.312H77.4764V397.58H114.268V397.312Z" fill="#E6E6E6"/>
<path d="M318.954 399.216H307.959V399.484H318.954V399.216Z" fill="#E6E6E6"/>
<path d="M146.161 401.12H125.455V401.387H146.161V401.12Z" fill="#E6E6E6"/>
<path d="M448.976 400.489H421.511V400.757H448.976V400.489Z" fill="#E6E6E6"/>
<path d="M402.783 396.692H384.024V396.96H402.783V396.692Z" fill="#E6E6E6"/>
<path d="M292.505 396.265H192.311V396.532H292.505V396.265Z" fill="#E6E6E6"/>
<path d="M253.478 339.462H46.9629C45.3451 339.459 43.7945 338.814 42.6515 337.669C41.5085 336.524 40.8666 334.973 40.8666 333.355V43.0535C40.8807 41.445 41.5288 39.9069 42.6703 38.7735C43.8117 37.6401 45.3543 37.0028 46.9629 37H253.478C255.097 37 256.651 37.6434 257.796 38.7887C258.941 39.934 259.585 41.4873 259.585 43.107V333.355C259.585 334.975 258.941 336.528 257.796 337.673C256.651 338.819 255.097 339.462 253.478 339.462V339.462ZM46.9629 37.2139C45.416 37.2167 43.9334 37.8332 42.8406 38.9281C41.7477 40.0229 41.134 41.5066 41.134 43.0535V333.355C41.134 334.902 41.7477 336.386 42.8406 337.48C43.9334 338.575 45.416 339.192 46.9629 339.195H253.478C255.026 339.192 256.509 338.576 257.604 337.481C258.698 336.387 259.314 334.903 259.317 333.355V43.0535C259.314 41.5056 258.698 40.0219 257.604 38.9274C256.509 37.8329 255.026 37.2167 253.478 37.2139H46.9629Z" fill="#E6E6E6"/>
<path d="M484.827 339.462H278.301C276.683 339.459 275.131 338.815 273.986 337.67C272.841 336.525 272.197 334.974 272.194 333.355V43.0535C272.211 41.444 272.862 39.906 274.005 38.7728C275.148 37.6397 276.692 37.0027 278.301 37H484.827C486.434 37.0056 487.973 37.6441 489.112 38.7773C490.252 39.9104 490.898 41.4468 490.912 43.0535V333.355C490.912 334.971 490.272 336.521 489.131 337.666C487.991 338.81 486.443 339.456 484.827 339.462V339.462ZM278.301 37.2139C276.753 37.2167 275.27 37.8329 274.175 38.9274C273.081 40.0219 272.465 41.5056 272.462 43.0535V333.355C272.465 334.903 273.081 336.387 274.175 337.481C275.27 338.576 276.753 339.192 278.301 339.195H484.827C486.375 339.192 487.858 338.576 488.953 337.481C490.047 336.387 490.664 334.903 490.666 333.355V43.0535C490.664 41.5056 490.047 40.0219 488.953 38.9274C487.858 37.8329 486.375 37.2167 484.827 37.2139H278.301Z" fill="#E6E6E6"/>
<path d="M367.724 282.574C367.136 282.574 366.548 282.574 365.949 282.627C362.225 282.896 358.606 283.985 355.352 285.816C352.098 287.647 349.289 290.175 347.126 293.218C344.964 296.262 343.501 299.746 342.842 303.422C342.184 307.097 342.346 310.872 343.318 314.478C346.081 325.251 347.415 336.341 347.286 347.462V379.847C347.286 380.982 347.736 382.07 348.539 382.872C349.341 383.674 350.429 384.125 351.564 384.125H454.356V282.574H367.724Z" fill="#F0F0F0"/>
<path d="M419.404 322.457H238.643V384.093H419.404V322.457Z" fill="#F0F0F0"/>
<path d="M181.552 248.616H355.211C360.287 248.628 365.151 250.652 368.736 254.245C372.321 257.838 374.334 262.706 374.334 267.782V336.392H162.386V267.782C162.386 262.699 164.405 257.824 168 254.23C171.594 250.635 176.469 248.616 181.552 248.616V248.616Z" fill="#E6E6E6"/>
<path d="M204.75 248.616H380.259C382.654 248.616 385.025 249.088 387.238 250.004C389.45 250.921 391.46 252.264 393.154 253.957C394.847 255.651 396.19 257.661 397.107 259.873C398.023 262.086 398.495 264.457 398.495 266.852V336.371H186.515V266.852C186.515 262.015 188.436 257.377 191.856 253.957C195.275 250.537 199.914 248.616 204.75 248.616V248.616Z" fill="#FAFAFA"/>
<path d="M244.686 316.831H418.185C419.66 316.831 421.074 317.417 422.117 318.459C423.16 319.502 423.746 320.917 423.746 322.392V336.371C423.746 337.846 423.16 339.26 422.117 340.303C421.074 341.346 419.66 341.932 418.185 341.932H244.686C244.246 341.932 243.825 341.758 243.514 341.447C243.203 341.136 243.028 340.714 243.028 340.275V318.488C243.028 318.049 243.203 317.627 243.514 317.316C243.825 317.005 244.246 316.831 244.686 316.831V316.831Z" fill="#E6E6E6"/>
<path d="M153.284 282.574C152.696 282.574 152.108 282.574 151.509 282.627C147.782 282.89 144.16 283.975 140.902 285.803C137.643 287.63 134.83 290.156 132.663 293.2C130.496 296.243 129.029 299.728 128.367 303.405C127.705 307.081 127.865 310.859 128.835 314.467C131.598 325.24 132.932 336.33 132.803 347.451V379.836C132.803 380.971 133.254 382.059 134.056 382.861C134.858 383.664 135.946 384.115 137.081 384.115H239.873V282.574H153.284Z" fill="#F0F0F0"/>
<path d="M265.168 307.889C265.168 301.318 262.613 295.003 258.043 290.281C253.472 285.558 247.244 282.799 240.676 282.585C234.107 282.371 227.713 284.72 222.845 289.134C217.977 293.549 215.017 299.684 214.59 306.242C214.401 309.014 214.676 311.797 215.403 314.478C218.165 325.251 219.5 336.341 219.37 347.462V379.847C219.37 380.982 219.821 382.07 220.623 382.872C221.426 383.675 222.514 384.125 223.649 384.125H256.109C257.243 384.125 258.331 383.675 259.134 382.872C259.936 382.07 260.387 380.982 260.387 379.847V345.558C260.293 335.129 261.61 324.736 264.301 314.66C264.895 312.452 265.186 310.175 265.168 307.889V307.889Z" fill="#FAFAFA"/>
<path d="M452.484 387.174H155.081C154.264 387.174 153.481 386.849 152.903 386.271C152.326 385.694 152.001 384.91 152.001 384.093H455.618C455.618 384.502 455.537 384.907 455.379 385.284C455.22 385.662 454.989 386.004 454.697 386.29C454.405 386.577 454.059 386.803 453.679 386.955C453.3 387.106 452.893 387.181 452.484 387.174V387.174Z" fill="#E0E0E0"/>
<path d="M311.285 98.3159H128.236V187.45H311.285V98.3159Z" fill="#E0E0E0"/>
<path d="M320.077 98.3159H134.354V187.45H320.077V98.3159Z" fill="#F5F5F5"/>
<path d="M313.05 180.434V105.343L141.381 105.343V180.434H313.05Z" fill="white"/>
<path d="M296.13 149.589V136.166C296.13 129.19 290.475 123.535 283.499 123.535L170.932 123.535C163.956 123.535 158.301 129.19 158.301 136.166V149.589C158.301 156.565 163.956 162.22 170.932 162.22H283.499C290.475 162.22 296.13 156.565 296.13 149.589Z" fill="#F5F5F5"/>
<path d="M398.698 152.391H355.093V197.568H398.698V152.391Z" fill="#E0E0E0"/>
<path d="M403.147 152.391H360.644V197.568H403.147V152.391Z" fill="#F5F5F5"/>
<path d="M399.586 194.017V155.953H364.206V194.017H399.586Z" fill="white"/>
<path d="M381.896 165.364L372.216 182.124H391.575L381.896 165.364Z" fill="#F5F5F5"/>
<path d="M161.135 382.425H42.1179V387.163H161.135V382.425Z" fill="#E6E6E6"/>
<path d="M71.1128 341.344H156.29V316.799H71.1128V341.344Z" fill="#F0F0F0"/>
<path d="M123.937 330.756H103.466C103.02 330.753 102.593 330.574 102.278 330.257C101.963 329.941 101.787 329.513 101.787 329.066C101.79 328.622 101.967 328.196 102.282 327.882C102.596 327.568 103.021 327.39 103.466 327.387H123.937C124.381 327.39 124.807 327.568 125.121 327.882C125.435 328.196 125.613 328.622 125.616 329.066V329.066C125.616 329.513 125.439 329.941 125.125 330.257C124.81 330.574 124.383 330.753 123.937 330.756V330.756Z" fill="#FAFAFA"/>
<path d="M123.937 362.617H103.466C103.021 362.617 102.593 362.44 102.279 362.125C101.964 361.81 101.787 361.383 101.787 360.938V360.938C101.787 360.493 101.964 360.066 102.279 359.751C102.593 359.436 103.021 359.259 103.466 359.259H123.937C124.382 359.259 124.809 359.436 125.124 359.751C125.439 360.066 125.616 360.493 125.616 360.938V360.938C125.616 361.383 125.439 361.81 125.124 362.125C124.809 362.44 124.382 362.617 123.937 362.617V362.617Z" fill="#FAFAFA"/>
<path d="M93.9686 252.691H80.0647C80.4604 266.167 74.3107 273.782 74.3107 289.644C74.3107 303.911 77.7973 306.585 87.0273 306.585C96.2573 306.585 99.744 303.911 99.744 289.644C99.7226 273.782 93.5621 266.167 93.9686 252.691Z" fill="#FAFAFA"/>
<path d="M81.9578 306.071H92.0541V306.927C92.0541 307.103 91.9842 307.271 91.8599 307.396C91.7355 307.52 91.5668 307.59 91.391 307.59H82.6209C82.445 307.59 82.2763 307.52 82.152 307.396C82.0276 307.271 81.9578 307.103 81.9578 306.927V306.071V306.071Z" fill="#F3F7FF"/>
<path d="M71.6903 257.601H70.6208V278.061H71.6903V257.601Z" fill="#E0E0E0"/>
<path d="M109.102 264.039H64.8988L72.4818 218.734H101.53L109.102 264.039Z" fill="#EBEBEB"/>
<path d="M259.2 391.676C258.194 356.778 256.911 188.851 258.922 171.354L262.932 166.979C262.932 166.979 262.836 171.996 262.74 185.354C262.323 245.14 260.772 382.756 261.114 391.644L259.2 391.676Z" fill="#407BFF"/>
<path opacity="0.6" d="M259.2 391.676C258.194 356.778 256.911 188.851 258.922 171.354L262.932 166.979C262.932 166.979 262.836 171.996 262.74 185.354C262.323 245.14 260.772 382.756 261.114 391.644L259.2 391.676Z" fill="white"/>
<path d="M275.574 292.403C285.435 282.552 296.791 274.322 309.221 268.017C318.451 263.504 294.248 292.98 284.772 303.964C275.296 314.948 263.638 327.087 259.895 337.344C259.146 316.446 263.895 304.028 275.574 292.403Z" fill="#407BFF"/>
<path opacity="0.6" d="M275.574 292.403C285.435 282.552 296.791 274.322 309.221 268.017C318.451 263.504 294.248 292.98 284.772 303.964C275.296 314.948 263.638 327.087 259.895 337.344C259.146 316.446 263.895 304.028 275.574 292.403Z" fill="white"/>
<path d="M259.799 203.193C252.59 171.386 254.815 153.097 262.932 133.492C270.526 115.161 276.451 106.968 285.275 100.027C287.553 98.2409 282.43 123.867 274.579 142.968C269.039 156.444 266.291 173.985 262.462 184.081C259.799 191.012 259.799 203.193 259.799 203.193Z" fill="#407BFF"/>
<path opacity="0.6" d="M259.799 203.193C252.59 171.386 254.815 153.097 262.932 133.492C270.526 115.161 276.451 106.968 285.275 100.027C287.553 98.2409 282.43 123.867 274.579 142.968C269.039 156.444 266.291 173.985 262.462 184.081C259.799 191.012 259.799 203.193 259.799 203.193Z" fill="white"/>
<path d="M260.184 272.894C259.392 253.857 258.44 235.461 272.911 211.279C276.43 205.386 307.564 155.664 318.312 152.669C323.585 151.214 314.216 189.685 299.82 212.648C289.018 229.857 284.034 234.413 272.216 254.499C267.563 262.413 260.184 272.894 260.184 272.894Z" fill="#407BFF"/>
<path opacity="0.6" d="M260.184 272.894C259.392 253.857 258.44 235.461 272.911 211.279C276.43 205.386 307.564 155.664 318.312 152.669C323.585 151.214 314.216 189.685 299.82 212.648C289.018 229.857 284.034 234.413 272.216 254.499C267.563 262.413 260.184 272.894 260.184 272.894Z" fill="white"/>
<path d="M241.595 194.273C228.889 182.017 216.429 173.952 207.199 169.878C197.969 165.803 222.269 196.295 233.937 209.536C245.606 222.776 256.301 234.263 260.879 246.049C259.563 220.798 254.312 206.541 241.595 194.273Z" fill="#407BFF"/>
<path opacity="0.6" d="M241.595 194.273C228.889 182.017 216.429 173.952 207.199 169.878C197.969 165.803 222.269 196.295 233.937 209.536C245.606 222.776 256.301 234.263 260.879 246.049C259.563 220.798 254.312 206.541 241.595 194.273Z" fill="white"/>
<path d="M260.889 309.001C258.825 294.659 254.119 278.285 246.9 266.948C239.681 255.611 228.568 238.327 219.37 233.653C217.167 232.53 229.328 267.557 235.221 277.247C240.045 285.256 245.911 292.59 252.665 299.055C254.226 300.67 260.889 309.001 260.889 309.001Z" fill="#407BFF"/>
<path opacity="0.6" d="M260.889 309.001C258.825 294.659 254.119 278.285 246.9 266.948C239.681 255.611 228.568 238.327 219.37 233.653C217.167 232.53 229.328 267.557 235.221 277.247C240.045 285.256 245.911 292.59 252.665 299.055C254.226 300.67 260.889 309.001 260.889 309.001Z" fill="white"/>
<path d="M276.344 400.724H244.002L241.563 365.879H278.783L276.344 400.724Z" fill="#407BFF"/>
<path d="M281.189 371.751H239.157L237.948 362.67H282.398L281.189 371.751Z" fill="#407BFF"/>
<g opacity="0.4">
<path opacity="0.4" d="M276.344 400.724H244.002L241.563 365.879H278.783L276.344 400.724Z" fill="black"/>
<path opacity="0.4" d="M281.189 371.751H239.157L237.948 362.67H282.398L281.189 371.751Z" fill="black"/>
</g>
<path d="M311.318 270.499C301.371 272.285 268.922 252.092 257.938 238.798C265.822 231.978 273.042 224.425 279.499 216.242C272.376 224.402 260.932 231.643 254.141 235.493C251.071 232.841 249.274 231.215 249.274 231.215C249.274 231.215 277.082 221.899 291.863 189.14C303.125 164.209 319.489 150.829 336.783 163.642C370.409 171.878 334.762 260.242 311.318 270.499Z" fill="#263238"/>
<path d="M321.339 216.68C321.072 217.076 320.911 217.311 320.697 217.589L320.109 218.381C319.703 218.894 319.296 219.376 318.879 219.857C318.034 220.819 317.179 221.739 316.28 222.616C314.47 224.357 312.54 225.968 310.505 227.44C308.462 228.889 306.317 230.191 304.088 231.333C302.954 231.878 301.831 232.402 300.665 232.884L298.922 233.568L298.462 233.75C298.184 233.836 297.949 233.921 297.638 233.996C296.94 234.174 296.216 234.228 295.499 234.156C294.615 234.064 293.764 233.763 293.018 233.279C292.388 232.848 291.847 232.3 291.424 231.664C290.876 230.815 290.488 229.873 290.28 228.884C289.987 227.477 289.861 226.041 289.906 224.606C289.984 222.132 290.256 219.668 290.719 217.236C291.157 214.873 291.67 212.563 292.248 210.274C292.826 207.985 293.489 205.739 294.269 203.472L298.28 204.445C297.991 206.691 297.67 208.969 297.457 211.236C297.243 213.504 296.975 215.75 296.847 217.985C296.696 220.139 296.678 222.3 296.793 224.456C296.834 225.343 296.977 226.222 297.221 227.076C297.318 227.386 297.457 227.589 297.414 227.472C297.324 227.314 297.195 227.181 297.039 227.087C296.787 226.906 296.492 226.792 296.184 226.755C296.042 226.733 295.898 226.733 295.756 226.755C295.756 226.755 295.756 226.755 295.756 226.755L296.098 226.595L297.531 225.9C298.494 225.44 299.414 224.905 300.344 224.402C302.171 223.318 303.938 222.136 305.638 220.862C307.313 219.561 308.903 218.153 310.398 216.648C311.157 215.921 311.874 215.151 312.537 214.37C312.868 213.974 313.211 213.579 313.521 213.183L313.991 212.595L314.376 212.103L321.339 216.68Z" fill="#E4897B"/>
<path d="M297.916 205.429L301.371 199.236L292.879 199.75C292.879 199.75 292.344 203.771 294.676 206.231L297.916 205.429Z" fill="#E4897B"/>
<path d="M323.532 206.402C315.146 206.734 308.772 214.702 308.772 214.702L319.467 228.178C319.467 228.178 327.489 220.092 328.216 215.654C328.997 211.023 328.58 206.199 323.532 206.402Z" fill="#407BFF"/>
<path opacity="0.3" d="M323.532 206.402C315.146 206.734 308.772 214.702 308.772 214.702L319.467 228.178C319.467 228.178 327.489 220.092 328.216 215.654C328.997 211.023 328.58 206.199 323.532 206.402Z" fill="black"/>
<path d="M299.788 195.514L293.563 197.065L292.879 199.749L301.371 199.236L299.788 195.514Z" fill="#E4897B"/>
<path d="M299.2 188.07L300.301 188.648L299.799 196.445L297.339 196.616L299.2 188.07Z" fill="#E4897B"/>
<path d="M297.328 187.771L296.248 188.028L295.221 197.375L297.649 196.755L297.328 187.771Z" fill="#E4897B"/>
<path d="M315.756 208.937C315.756 208.937 312.473 211.408 334.28 254.606L365.778 244.627C361.19 231.975 358.666 224.06 356.473 195.792C351.785 196.279 347.138 197.105 342.569 198.263C337.694 199.423 332.908 200.931 328.248 202.776C322.28 205.301 315.756 208.937 315.756 208.937Z" fill="#407BFF"/>
<path opacity="0.3" d="M315.756 208.937C315.756 208.937 312.473 211.408 334.28 254.606L365.778 244.627C361.19 231.975 358.666 224.06 356.473 195.792C351.785 196.279 347.138 197.105 342.569 198.263C337.694 199.423 332.908 200.931 328.248 202.776C322.28 205.301 315.756 208.937 315.756 208.937Z" fill="black"/>
<path d="M389.404 414.468L381.543 415.227L373.361 396.51L381.222 395.751L389.404 414.468Z" fill="#E4897B"/>
<path d="M373.361 396.521L377.575 406.168H385.778L381.233 395.751L373.361 396.521Z" fill="#CE6F64"/>
<path d="M460.335 375.836L455.853 382.638L438.677 374.435L443.169 367.644L460.335 375.836Z" fill="#E4897B"/>
<path d="M443.169 367.644L438.687 374.435L447.543 378.66L452.024 371.868L443.169 367.644Z" fill="#CE6F64"/>
<path d="M334.28 254.606C334.28 254.606 332.697 319.558 340.697 343.066C349.008 367.516 373.489 403.366 373.489 403.366L388.751 402.628C388.751 402.628 366.74 357.58 364.259 338.125C360.858 311.301 357.371 247.301 357.371 247.301L334.28 254.606Z" fill="#407BFF"/>
<path opacity="0.6" d="M334.28 254.606C334.28 254.606 332.697 319.558 340.697 343.066C349.008 367.516 373.489 403.366 373.489 403.366L388.751 402.628C388.751 402.628 366.74 357.58 364.259 338.125C360.858 311.301 357.371 247.301 357.371 247.301L334.28 254.606Z" fill="black"/>
<path opacity="0.3" d="M359.981 289.13L348.751 263.461C348.751 263.461 350.045 293.055 360.815 300.67C360.526 296.819 360.248 292.937 359.981 289.13Z" fill="black"/>
<path d="M342.612 251.975C342.612 251.975 364.002 303.815 378.142 332.36C389.585 355.408 444.238 379.088 444.238 379.088L449.971 369.462C449.971 369.462 408.163 342.938 400.259 327.301C374.965 277.258 380.355 255.504 365.81 244.627L342.612 251.975Z" fill="#407BFF"/>
<path opacity="0.6" d="M342.612 251.975C342.612 251.975 364.002 303.815 378.142 332.36C389.585 355.408 444.238 379.088 444.238 379.088L449.971 369.462C449.971 369.462 408.163 342.938 400.259 327.301C374.965 277.258 380.355 255.504 365.81 244.627L342.612 251.975Z" fill="black"/>
<path d="M453.96 381.901L454.549 372.831C454.558 372.673 454.624 372.524 454.733 372.41C454.843 372.296 454.99 372.226 455.147 372.211L462.442 371.644C462.625 371.636 462.808 371.667 462.978 371.734C463.149 371.802 463.303 371.904 463.431 372.036C463.559 372.167 463.659 372.324 463.722 372.496C463.786 372.668 463.812 372.851 463.8 373.034C463.533 376.243 463.254 377.74 462.987 381.751C462.837 384.221 462.848 389.708 462.623 393.109C462.399 396.51 459.019 396.489 458.805 395.045C457.843 388.628 456.035 385.601 454.377 383.344C454.068 382.929 453.92 382.416 453.96 381.901V381.901Z" fill="#263238"/>
<path d="M380.495 412.799H390.12C390.295 412.801 390.464 412.86 390.603 412.966C390.741 413.072 390.842 413.219 390.89 413.387L393.029 421.023C393.084 421.204 393.095 421.395 393.061 421.581C393.027 421.766 392.949 421.941 392.834 422.09C392.719 422.24 392.57 422.36 392.399 422.44C392.229 422.521 392.041 422.559 391.853 422.553C388.473 422.499 386.826 422.307 382.58 422.307C379.97 422.307 373.211 422.574 369.607 422.574C366.002 422.574 365.329 419.002 366.805 418.681C373.35 417.237 377.126 415.237 379.136 413.334C379.505 412.991 379.991 412.8 380.495 412.799V412.799Z" fill="#263238"/>
<path d="M336.045 182.594C336.601 187.493 338.366 196.209 342.558 198.263C342.558 198.263 342.783 203.332 334.227 206.049C324.815 209.022 328.248 202.84 328.248 202.84C332.997 199.985 331.66 196.22 329.628 192.926L336.045 182.594Z" fill="#E4897B"/>
<path d="M320.12 206.626C322.451 205.429 325.414 203.985 328.248 202.798C332.904 200.947 337.686 199.432 342.558 198.263C345.318 197.536 348.099 196.99 350.441 196.616C350.944 198.167 352.58 209.364 335.853 213.504C321.2 217.14 319.35 209.044 320.12 206.626Z" fill="#E4897B"/>
<path d="M327.639 203.108C327.496 203.107 327.359 203.054 327.254 202.958C327.156 202.854 327.102 202.716 327.104 202.573C327.103 202.433 327.157 202.299 327.254 202.199C327.357 202.102 327.492 202.049 327.633 202.049C327.774 202.049 327.91 202.102 328.013 202.199C328.113 202.298 328.17 202.432 328.173 202.573C328.171 202.717 328.113 202.855 328.013 202.958C327.912 203.055 327.778 203.109 327.639 203.108Z" fill="#F0F0F0"/>
<path d="M331.339 209.493C331.196 209.477 331.065 209.405 330.975 209.292C330.885 209.18 330.843 209.037 330.858 208.894V208.894C330.874 208.754 330.945 208.625 331.055 208.537C331.165 208.449 331.306 208.408 331.446 208.423C331.516 208.43 331.585 208.45 331.647 208.484C331.709 208.517 331.765 208.562 331.809 208.617C331.854 208.672 331.888 208.735 331.908 208.802C331.928 208.87 331.935 208.941 331.927 209.011C331.912 209.143 331.849 209.264 331.751 209.353C331.652 209.441 331.525 209.491 331.393 209.493H331.339ZM332.997 208.979C332.982 208.838 333.022 208.696 333.11 208.584C333.198 208.472 333.326 208.399 333.467 208.38V208.38C333.608 208.365 333.748 208.406 333.859 208.495C333.969 208.583 334.04 208.711 334.056 208.851C334.066 208.922 334.062 208.993 334.044 209.062C334.026 209.131 333.993 209.196 333.949 209.252C333.905 209.308 333.85 209.354 333.788 209.388C333.725 209.423 333.656 209.443 333.585 209.45V209.45C333.445 209.462 333.306 209.42 333.197 209.333C333.087 209.245 333.016 209.118 332.997 208.979V208.979ZM335.136 208.659C335.1 208.522 335.119 208.378 335.189 208.255C335.259 208.133 335.375 208.044 335.51 208.006C335.578 207.987 335.65 207.982 335.72 207.991C335.79 208 335.858 208.023 335.919 208.059C335.98 208.095 336.033 208.143 336.075 208.2C336.117 208.257 336.147 208.322 336.163 208.391V208.391C336.199 208.527 336.18 208.672 336.11 208.794C336.04 208.916 335.924 209.006 335.788 209.044H335.649C335.53 209.048 335.413 209.013 335.316 208.943C335.219 208.873 335.148 208.773 335.115 208.659H335.136ZM329.115 208.787C329.053 208.753 329 208.706 328.957 208.651C328.914 208.595 328.882 208.532 328.864 208.464C328.846 208.396 328.842 208.325 328.852 208.256C328.862 208.186 328.886 208.12 328.922 208.06C328.995 207.937 329.114 207.849 329.252 207.813C329.39 207.777 329.536 207.796 329.66 207.867C329.721 207.903 329.774 207.951 329.816 208.008C329.858 208.065 329.888 208.13 329.905 208.198C329.922 208.267 329.925 208.338 329.914 208.408C329.903 208.478 329.879 208.545 329.842 208.605C329.795 208.685 329.727 208.75 329.646 208.795C329.566 208.84 329.474 208.863 329.382 208.862V208.862C329.28 208.867 329.18 208.84 329.093 208.787H329.115ZM337.179 208.038C337.15 207.974 337.135 207.904 337.134 207.834C337.132 207.763 337.145 207.693 337.171 207.627C337.197 207.562 337.235 207.502 337.284 207.451C337.333 207.401 337.392 207.36 337.457 207.332V207.332C337.521 207.304 337.591 207.289 337.661 207.287C337.732 207.286 337.802 207.299 337.868 207.324C337.933 207.35 337.993 207.389 338.044 207.438C338.094 207.487 338.135 207.546 338.163 207.61C338.217 207.741 338.218 207.888 338.166 208.02C338.115 208.151 338.014 208.258 337.885 208.316V208.316C337.814 208.332 337.741 208.332 337.671 208.316V208.316C337.567 208.325 337.464 208.303 337.373 208.253C337.282 208.204 337.207 208.129 337.157 208.038H337.179ZM339.04 207.054C338.999 206.996 338.971 206.931 338.956 206.861C338.941 206.792 338.94 206.72 338.953 206.651C338.966 206.581 338.992 206.515 339.031 206.455C339.07 206.396 339.12 206.345 339.179 206.306V206.306C339.295 206.227 339.438 206.198 339.576 206.224C339.714 206.25 339.837 206.329 339.917 206.445V206.445C339.957 206.501 339.987 206.565 340.002 206.633C340.018 206.701 340.02 206.772 340.008 206.841C339.996 206.909 339.97 206.975 339.933 207.034C339.895 207.092 339.846 207.143 339.788 207.183C339.697 207.245 339.589 207.278 339.478 207.279V207.279C339.392 207.28 339.307 207.26 339.231 207.221C339.154 207.182 339.089 207.125 339.04 207.054V207.054ZM327.467 207.054C327.437 206.99 327.419 206.921 327.415 206.85C327.412 206.78 327.422 206.709 327.446 206.642C327.47 206.576 327.507 206.514 327.555 206.462C327.602 206.41 327.66 206.367 327.724 206.338V206.338C327.787 206.307 327.854 206.289 327.924 206.284C327.993 206.28 328.063 206.29 328.129 206.313C328.194 206.336 328.255 206.371 328.307 206.418C328.358 206.464 328.4 206.521 328.43 206.584V206.584C328.461 206.647 328.479 206.715 328.484 206.786C328.488 206.856 328.479 206.926 328.456 206.993C328.433 207.06 328.397 207.121 328.351 207.174C328.304 207.226 328.247 207.269 328.184 207.3C328.114 207.333 328.037 207.351 327.959 207.354V207.354C327.857 207.356 327.757 207.329 327.67 207.276C327.582 207.223 327.512 207.146 327.467 207.054ZM340.762 205.814C340.712 205.765 340.672 205.707 340.645 205.642C340.618 205.578 340.604 205.509 340.604 205.439C340.604 205.37 340.618 205.3 340.645 205.236C340.672 205.172 340.712 205.114 340.762 205.065V205.065C340.81 205.014 340.868 204.973 340.932 204.945C340.996 204.917 341.066 204.903 341.136 204.903C341.206 204.903 341.276 204.917 341.34 204.945C341.404 204.973 341.462 205.014 341.51 205.065C341.56 205.115 341.6 205.174 341.627 205.239C341.655 205.304 341.668 205.374 341.668 205.445C341.668 205.515 341.655 205.585 341.627 205.65C341.6 205.715 341.56 205.775 341.51 205.824C341.46 205.879 341.399 205.922 341.33 205.951C341.262 205.981 341.189 205.996 341.115 205.995V205.995C341.044 205.983 340.976 205.957 340.916 205.918C340.855 205.88 340.803 205.83 340.762 205.771V205.814ZM326.922 204.744C326.918 204.674 326.927 204.603 326.95 204.537C326.973 204.47 327.009 204.409 327.056 204.356C327.102 204.304 327.159 204.261 327.222 204.23C327.286 204.199 327.354 204.181 327.425 204.177C327.568 204.171 327.707 204.222 327.813 204.318C327.919 204.414 327.983 204.548 327.992 204.691V204.691C327.994 204.761 327.983 204.831 327.959 204.897C327.935 204.963 327.898 205.023 327.85 205.075C327.802 205.127 327.745 205.168 327.681 205.198C327.617 205.227 327.548 205.244 327.478 205.247V205.247C327.408 205.25 327.338 205.239 327.272 205.214C327.206 205.19 327.145 205.153 327.094 205.105C327.042 205.058 327 205 326.971 204.936C326.941 204.873 326.925 204.804 326.922 204.733V204.744ZM342.141 204.145C342.081 204.109 342.028 204.061 341.986 204.004C341.944 203.947 341.913 203.883 341.896 203.814C341.88 203.745 341.876 203.674 341.887 203.604C341.898 203.534 341.923 203.467 341.96 203.407C342.036 203.289 342.156 203.204 342.294 203.173C342.432 203.141 342.576 203.163 342.698 203.236C342.818 203.311 342.904 203.43 342.938 203.568C342.972 203.706 342.951 203.851 342.879 203.974C342.83 204.051 342.762 204.115 342.682 204.16C342.601 204.205 342.511 204.229 342.419 204.231V204.231C342.32 204.225 342.223 204.192 342.141 204.134V204.145ZM343.211 202.263C343.145 202.239 343.084 202.202 343.033 202.155C342.982 202.107 342.94 202.05 342.911 201.986C342.882 201.922 342.866 201.853 342.865 201.783C342.863 201.713 342.875 201.643 342.901 201.578C342.924 201.512 342.961 201.452 343.009 201.4C343.056 201.349 343.114 201.307 343.177 201.279C343.241 201.25 343.31 201.234 343.38 201.232C343.45 201.23 343.52 201.242 343.585 201.268V201.268C343.651 201.293 343.712 201.331 343.764 201.379C343.815 201.428 343.857 201.486 343.886 201.551C343.914 201.616 343.93 201.685 343.932 201.756C343.934 201.827 343.921 201.897 343.895 201.963V201.963C343.858 202.066 343.789 202.153 343.699 202.215C343.609 202.276 343.502 202.308 343.393 202.306C343.314 202.31 343.236 202.291 343.168 202.252L343.211 202.263ZM343.885 200.241C343.746 200.208 343.626 200.123 343.548 200.004C343.471 199.884 343.442 199.74 343.468 199.6V199.6C343.483 199.531 343.511 199.465 343.552 199.408C343.592 199.35 343.644 199.3 343.704 199.263C343.763 199.225 343.83 199.199 343.9 199.187C343.969 199.175 344.04 199.177 344.109 199.193C344.178 199.207 344.243 199.235 344.301 199.274C344.358 199.314 344.408 199.364 344.446 199.423C344.483 199.482 344.509 199.548 344.521 199.617C344.533 199.685 344.531 199.756 344.516 199.824V199.824C344.489 199.944 344.423 200.052 344.328 200.129C344.233 200.207 344.114 200.25 343.992 200.252H343.885V200.241Z" fill="#F0F0F0"/>
<path d="M344.27 198.081C344.199 198.084 344.128 198.072 344.062 198.047C343.995 198.021 343.935 197.982 343.885 197.931C343.835 197.881 343.795 197.821 343.769 197.755C343.744 197.688 343.732 197.617 343.735 197.546C343.734 197.407 343.788 197.273 343.885 197.172C343.935 197.123 343.992 197.084 344.056 197.054C344.155 197.017 344.263 197.008 344.367 197.029C344.471 197.05 344.567 197.099 344.644 197.172C344.744 197.271 344.801 197.406 344.804 197.546C344.8 197.69 344.743 197.827 344.644 197.931C344.594 197.977 344.536 198.013 344.473 198.038C344.409 198.067 344.34 198.082 344.27 198.081V198.081Z" fill="#F0F0F0"/>
<path d="M333.425 186.797L329.628 192.872C330.118 193.634 330.537 194.44 330.879 195.279C332.751 194.37 335.157 191.685 334.708 189.557C334.449 188.568 334.014 187.633 333.425 186.797V186.797Z" fill="#CE6F64"/>
<path d="M333.82 171.76C336.505 179.375 337.81 182.541 335.671 187.942C332.462 196.06 322.516 197.707 317.606 191.043C313.189 185.054 309.531 173.6 315.542 167.567C316.862 166.229 318.501 165.25 320.306 164.724C322.11 164.198 324.019 164.142 325.851 164.563C327.683 164.983 329.377 165.865 330.772 167.125C332.167 168.384 333.216 169.98 333.82 171.76V171.76Z" fill="#E4897B"/>
<path d="M322.719 163.653C321.04 166.241 327.874 181.214 337.895 178.23C342.911 176.733 341.222 173.386 338.27 170.412C334.709 166.885 330.086 164.63 325.115 163.995L322.719 163.653Z" fill="#263238"/>
<path d="M323.104 164.081C320.152 163.792 310.344 165.6 310.772 175.568C310.772 175.568 314.847 171.91 326.205 171.289L323.104 164.081Z" fill="#263238"/>
<path d="M337.81 177.91C338.034 178.651 338.11 179.43 338.033 180.2C337.956 180.971 337.728 181.719 337.361 182.402C336.377 184.22 334.398 183.685 333.435 181.984C332.569 180.444 332.045 177.642 333.628 176.391C333.982 176.127 334.395 175.956 334.832 175.892C335.268 175.827 335.714 175.873 336.128 176.023C336.543 176.174 336.913 176.425 337.207 176.754C337.5 177.084 337.708 177.481 337.81 177.91V177.91Z" fill="#E4897B"/>
<path d="M365.692 242.627L368.002 245.001C368.184 245.183 368.002 245.493 367.639 245.611L334.58 256.071C334.291 256.156 334.013 256.071 333.938 255.921L332.762 253.183C332.676 253.001 332.879 252.755 333.189 252.659L365.104 242.563C365.199 242.522 365.304 242.506 365.407 242.517C365.51 242.528 365.608 242.566 365.692 242.627V242.627Z" fill="#407BFF"/>
<path d="M323.435 178.551C323.692 179.161 323.574 179.781 323.189 179.952C322.804 180.124 322.259 179.76 322.002 179.161C321.745 178.562 321.863 177.931 322.259 177.76C322.655 177.589 323.179 177.942 323.435 178.551Z" fill="#263238"/>
<path d="M316.58 181.45C316.836 182.049 316.729 182.68 316.334 182.851C315.938 183.022 315.403 182.658 315.147 182.059C314.89 181.461 315.007 180.83 315.403 180.658C315.799 180.487 316.344 180.84 316.58 181.45Z" fill="#263238"/>
<path d="M315.617 180.616L313.981 180.819C313.981 180.819 315.211 181.632 315.617 180.616Z" fill="#263238"/>
<path d="M318.847 181.717C318.892 183.327 318.719 184.935 318.334 186.498C318.735 186.588 319.15 186.588 319.551 186.5C319.952 186.411 320.329 186.235 320.655 185.985L318.847 181.717Z" fill="#DE5753"/>
<path d="M323.713 187.482C323.676 187.482 323.64 187.471 323.609 187.45C323.579 187.429 323.555 187.399 323.542 187.364C323.532 187.341 323.526 187.316 323.525 187.291C323.524 187.265 323.528 187.24 323.537 187.216C323.546 187.192 323.559 187.17 323.577 187.151C323.594 187.133 323.615 187.118 323.639 187.108C324.399 186.806 325.077 186.329 325.618 185.716C326.159 185.103 326.547 184.37 326.751 183.578C326.755 183.553 326.764 183.529 326.777 183.507C326.791 183.486 326.809 183.468 326.83 183.453C326.851 183.439 326.875 183.43 326.9 183.425C326.925 183.421 326.951 183.422 326.975 183.428C327.001 183.432 327.025 183.441 327.047 183.455C327.069 183.468 327.088 183.486 327.103 183.507C327.118 183.528 327.129 183.552 327.134 183.577C327.14 183.602 327.14 183.628 327.136 183.653C326.92 184.508 326.504 185.299 325.922 185.961C325.34 186.623 324.609 187.137 323.788 187.461L323.713 187.482Z" fill="#263238"/>
<path d="M324.409 175.503C324.34 175.506 324.273 175.487 324.216 175.45C323.805 175.196 323.339 175.045 322.857 175.008C322.375 174.97 321.891 175.049 321.446 175.236C321.4 175.259 321.351 175.273 321.3 175.277C321.248 175.281 321.197 175.275 321.149 175.259C321.1 175.243 321.055 175.218 321.016 175.184C320.977 175.151 320.945 175.111 320.922 175.065C320.899 175.019 320.885 174.969 320.881 174.918C320.877 174.867 320.883 174.816 320.899 174.767C320.915 174.719 320.94 174.674 320.973 174.635C321.007 174.596 321.047 174.564 321.093 174.541C321.655 174.298 322.267 174.193 322.877 174.236C323.488 174.279 324.079 174.468 324.601 174.787C324.689 174.838 324.752 174.922 324.778 175.02C324.805 175.118 324.791 175.223 324.74 175.311C324.709 175.372 324.662 175.422 324.603 175.456C324.544 175.49 324.477 175.507 324.409 175.503Z" fill="#263238"/>
<path d="M312.013 179.642H311.949C311.899 179.633 311.851 179.615 311.808 179.587C311.766 179.56 311.729 179.524 311.7 179.482C311.671 179.441 311.651 179.394 311.64 179.344C311.63 179.294 311.629 179.243 311.638 179.193C311.74 178.585 311.988 178.01 312.361 177.518C312.733 177.027 313.219 176.632 313.778 176.37C313.825 176.344 313.877 176.329 313.93 176.325C313.983 176.321 314.037 176.328 314.088 176.346C314.138 176.363 314.184 176.391 314.223 176.428C314.262 176.465 314.293 176.509 314.314 176.558C314.335 176.608 314.346 176.661 314.345 176.714C314.344 176.768 314.332 176.821 314.31 176.869C314.287 176.918 314.255 176.962 314.215 176.997C314.175 177.033 314.128 177.059 314.077 177.076C313.645 177.295 313.271 177.614 312.987 178.007C312.702 178.399 312.515 178.853 312.441 179.332C312.42 179.428 312.365 179.512 312.286 179.569C312.207 179.626 312.11 179.653 312.013 179.642V179.642Z" fill="#263238"/>
<path d="M362.569 203.076C363.339 203.985 364.281 205.012 365.158 205.985C366.035 206.958 366.986 207.921 367.928 208.862C369.799 210.766 371.724 212.616 373.746 214.338C375.767 216.06 377.81 217.739 379.949 219.236C380.473 219.632 381.019 219.963 381.575 220.306C382.131 220.648 382.644 221.022 383.211 221.375C383.778 221.728 384.356 222.07 384.858 222.338L385.543 222.691L386.291 222.99C387.372 223.382 388.485 223.675 389.618 223.867C390.84 224.057 392.072 224.175 393.307 224.22C395.913 224.28 398.519 224.144 401.104 223.814C403.775 223.498 406.428 223.041 409.051 222.445C411.693 221.899 414.398 221.183 416.923 220.445L418.452 224.274C415.851 225.484 413.188 226.555 410.473 227.482C407.739 228.408 404.958 229.19 402.142 229.825C399.248 230.482 396.303 230.886 393.34 231.033C390.154 231.211 386.961 230.849 383.896 229.964L382.687 229.536L381.489 229.001C380.741 228.648 380.142 228.306 379.468 227.931C378.794 227.557 378.152 227.226 377.521 226.862C376.89 226.498 376.227 226.124 375.617 225.718C373.136 224.154 370.754 222.44 368.484 220.584C366.227 218.744 364.067 216.798 362.002 214.766C360.976 213.739 359.97 212.691 358.986 211.621C357.992 210.552 357.072 209.482 356.077 208.252L362.569 203.076Z" fill="#E4897B"/>
<path d="M453.95 386.585C453.846 386.595 453.743 386.595 453.639 386.585C453.524 386.57 453.414 386.523 453.324 386.449C453.233 386.375 453.165 386.278 453.126 386.168C452.752 385.194 454.506 382.831 454.709 382.563C454.731 382.535 454.761 382.513 454.795 382.502C454.83 382.491 454.867 382.49 454.901 382.499C454.939 382.505 454.974 382.523 455 382.55C455.027 382.577 455.045 382.612 455.051 382.649C455.233 383.719 455.426 385.622 454.677 386.339C454.578 386.426 454.463 386.493 454.338 386.535C454.213 386.577 454.081 386.594 453.95 386.585ZM454.741 383.141C454.067 384.104 453.286 385.483 453.479 385.997C453.479 386.061 453.554 386.136 453.714 386.168C453.833 386.204 453.96 386.21 454.081 386.184C454.203 386.157 454.316 386.1 454.409 386.018C454.816 385.665 454.934 384.596 454.741 383.141Z" fill="#407BFF"/>
<path d="M452.014 384.596C451.936 384.607 451.856 384.607 451.778 384.596C451.632 384.553 451.504 384.462 451.415 384.338C451.325 384.214 451.28 384.064 451.286 383.911C451.275 383.763 451.297 383.614 451.35 383.475C451.404 383.336 451.488 383.211 451.597 383.109C452.431 382.285 454.805 382.424 454.869 382.424C454.902 382.429 454.934 382.441 454.962 382.46C454.989 382.478 455.013 382.503 455.03 382.531C455.048 382.56 455.057 382.594 455.057 382.628C455.057 382.662 455.048 382.695 455.03 382.724C454.28 383.687 453.21 384.351 452.014 384.596V384.596ZM454.409 382.777C453.52 382.703 452.63 382.909 451.864 383.366C451.797 383.43 451.746 383.509 451.712 383.596C451.679 383.683 451.665 383.776 451.671 383.868C451.671 384.114 451.789 384.178 451.875 384.2C452.431 384.35 453.811 383.515 454.474 382.777H454.409Z" fill="#407BFF"/>
<path d="M376.216 414.393C375.558 414.44 374.9 414.283 374.334 413.943C374.185 413.838 374.063 413.699 373.977 413.537C373.892 413.375 373.845 413.196 373.842 413.013C373.829 412.912 373.844 412.81 373.885 412.717C373.927 412.625 373.993 412.546 374.077 412.489C374.965 411.901 378.249 413.387 378.901 413.697C378.937 413.713 378.968 413.741 378.987 413.776C379.006 413.81 379.014 413.851 379.008 413.89C379.003 413.93 378.986 413.968 378.959 413.998C378.932 414.029 378.897 414.051 378.858 414.061C377.992 414.264 377.106 414.376 376.216 414.393V414.393ZM374.676 412.724C374.546 412.717 374.416 412.747 374.302 412.81C374.272 412.829 374.249 412.856 374.236 412.889C374.222 412.921 374.219 412.957 374.227 412.992C374.227 413.117 374.256 413.241 374.314 413.353C374.372 413.465 374.456 413.561 374.559 413.633C375.318 414.211 377.136 413.997 378.184 413.804C377.079 413.263 375.895 412.898 374.676 412.724V412.724Z" fill="#407BFF"/>
<path d="M378.815 414.061H378.74C377.671 413.612 375.457 411.858 375.532 410.938C375.532 410.746 375.692 410.489 376.195 410.435C378.109 410.189 378.922 413.644 378.965 413.836C378.972 413.865 378.972 413.895 378.965 413.923C378.958 413.952 378.945 413.979 378.926 414.001C378.908 414.024 378.884 414.042 378.858 414.054C378.831 414.067 378.802 414.073 378.773 414.072L378.815 414.061ZM376.409 410.799H376.281C376.077 410.799 375.97 410.874 375.96 410.97C375.885 411.505 377.404 412.895 378.516 413.505C378.259 412.671 377.543 410.799 376.409 410.799Z" fill="#407BFF"/>
<path d="M418.901 218.937L416.591 213.226L412.719 220.541C412.719 220.541 415.094 224.573 418.463 224.274L418.987 222.787C419.424 221.536 419.394 220.168 418.901 218.937V218.937Z" fill="#E4897B"/>
<path d="M322.441 177.717L320.815 177.92C320.815 177.92 322.045 178.733 322.441 177.717Z" fill="#263238"/>
<path d="M389.831 403.077L371.617 404.039L368.986 398.991L388.751 398.339L389.831 403.077Z" fill="#407BFF"/>
<path opacity="0.7" d="M389.831 403.077L371.617 404.039L368.986 398.991L388.751 398.339L389.831 403.077Z" fill="white"/>
<path d="M451.286 368.2L443.939 380.253L440.067 379.451L446.955 365.301L451.286 368.2Z" fill="#407BFF"/>
<path opacity="0.7" d="M451.286 368.2L443.939 380.253L440.067 379.451L446.955 365.301L451.286 368.2Z" fill="white"/>
<path d="M362.569 247.557L363.425 247.29C363.596 247.236 363.692 247.108 363.65 247.001L362.056 243.418C362.056 243.311 361.831 243.279 361.66 243.333L360.805 243.6C360.633 243.6 360.537 243.782 360.58 243.889L362.141 247.429C362.184 247.568 362.366 247.611 362.569 247.557Z" fill="#407BFF"/>
<path d="M337.072 255.611L337.927 255.344C338.099 255.344 338.205 255.162 338.163 255.055L336.601 251.515C336.548 251.408 336.377 251.376 336.205 251.429L335.35 251.697C335.179 251.697 335.082 251.878 335.125 251.985L336.687 255.525C336.73 255.622 336.901 255.665 337.072 255.611Z" fill="#407BFF"/>
<path d="M349.81 251.59L350.665 251.312C350.826 251.312 350.933 251.13 350.89 251.023L349.329 247.493C349.329 247.386 349.104 247.344 348.933 247.397L348.077 247.664C347.906 247.718 347.81 247.857 347.853 247.953L349.414 251.493C349.457 251.6 349.639 251.643 349.81 251.59Z" fill="#407BFF"/>
<path opacity="0.6" d="M362.569 247.557L363.425 247.29C363.596 247.236 363.692 247.108 363.65 247.001L362.056 243.418C362.056 243.311 361.831 243.279 361.66 243.333L360.805 243.6C360.633 243.6 360.537 243.782 360.58 243.889L362.141 247.429C362.184 247.568 362.366 247.611 362.569 247.557Z" fill="black"/>
<path opacity="0.6" d="M337.072 255.611L337.927 255.344C338.099 255.344 338.205 255.162 338.163 255.055L336.601 251.515C336.548 251.408 336.377 251.376 336.205 251.429L335.35 251.697C335.179 251.697 335.082 251.878 335.125 251.985L336.687 255.525C336.73 255.622 336.901 255.665 337.072 255.611Z" fill="black"/>
<path opacity="0.6" d="M349.81 251.59L350.665 251.312C350.826 251.312 350.933 251.13 350.89 251.023L349.329 247.493C349.329 247.386 349.104 247.344 348.933 247.397L348.077 247.664C347.906 247.718 347.81 247.857 347.853 247.953L349.414 251.493C349.457 251.6 349.639 251.643 349.81 251.59Z" fill="black"/>
<path d="M356.505 195.792C359.96 195.792 367.2 205.418 367.2 205.418L357.714 218.06C357.714 218.06 351.66 210.167 351.692 205.664C351.735 200.99 352.548 195.835 356.505 195.792Z" fill="#407BFF"/>
<path opacity="0.3" d="M356.505 195.792C359.96 195.792 367.2 205.418 367.2 205.418L357.714 218.06C357.714 218.06 351.66 210.167 351.692 205.664C351.735 200.99 352.548 195.835 356.505 195.792Z" fill="black"/>
<path d="M413.415 212.926L413.329 218.68C413.33 218.945 413.412 219.202 413.564 219.418L415.65 222.338L416.591 213.226L415.522 212.103C415.351 211.936 415.135 211.821 414.901 211.774C414.667 211.726 414.424 211.747 414.202 211.834C413.979 211.921 413.787 212.07 413.647 212.264C413.507 212.458 413.427 212.688 413.415 212.926Z" fill="#E4897B"/>
<path d="M229.595 131.033V389.858H388.848V131.033H229.595ZM375.051 379.484H234.034V141.396H375.029L375.051 379.484Z" fill="#407BFF"/>
<path opacity="0.6" d="M229.595 131.033V389.858H388.848V131.033H229.595ZM375.051 379.484H234.034V141.396H375.029L375.051 379.484Z" fill="white"/>
<path d="M234.034 141.396H232.547V379.483H234.034V141.396Z" fill="white"/>
<path d="M234.034 141.396H232.547V379.483H234.034V141.396Z" fill="#F0F0F0"/>
<path d="M405.543 70.4438H118.108C115.629 70.4494 113.253 71.4336 111.497 73.1822C109.74 74.9308 108.745 77.3023 108.728 79.7808V413.205C108.736 415.69 109.728 418.069 111.485 419.825C113.243 421.58 115.624 422.569 118.108 422.575H405.543C408.026 422.569 410.406 421.58 412.161 419.824C413.917 418.068 414.906 415.689 414.912 413.205V79.7808C414.898 77.3033 413.905 74.9317 412.15 73.1828C410.395 71.434 408.02 70.4495 405.543 70.4438V70.4438ZM234.034 141.396H375.029V379.483H234.034V141.396Z" fill="#407BFF"/>
<path opacity="0.5" d="M405.543 70.4438H118.108C115.629 70.4494 113.253 71.4336 111.497 73.1822C109.74 74.9308 108.745 77.3023 108.728 79.7808V413.205C108.736 415.69 109.728 418.069 111.485 419.825C113.243 421.58 115.624 422.569 118.108 422.575H405.543C408.026 422.569 410.406 421.58 412.161 419.824C413.917 418.068 414.906 415.689 414.912 413.205V79.7808C414.898 77.3033 413.905 74.9317 412.15 73.1828C410.395 71.434 408.02 70.4495 405.543 70.4438V70.4438ZM234.034 141.396H375.029V379.483H234.034V141.396Z" fill="black"/>
<path d="M403.051 70.4438H115.616C113.137 70.4494 110.761 71.4336 109.005 73.1822C107.248 74.9308 106.253 77.3023 106.236 79.7808V413.205C106.244 415.69 107.236 418.069 108.993 419.825C110.751 421.58 113.132 422.569 115.616 422.575H403.051C405.533 422.566 407.911 421.576 409.666 419.821C411.422 418.066 412.411 415.688 412.42 413.205V79.7808C412.403 77.3042 411.409 74.9342 409.655 73.1859C407.901 71.4376 405.528 70.4522 403.051 70.4438ZM234.066 141.396H375.029V379.483H234.034L234.066 141.396Z" fill="#407BFF"/>
<path opacity="0.2" d="M403.051 70.4438H115.616C113.137 70.4494 110.761 71.4336 109.005 73.1822C107.248 74.9308 106.253 77.3023 106.236 79.7808V413.205C106.244 415.69 107.236 418.069 108.993 419.825C110.751 421.58 113.132 422.569 115.616 422.575H403.051C405.533 422.566 407.911 421.576 409.666 419.821C411.422 418.066 412.411 415.688 412.42 413.205V79.7808C412.403 77.3042 411.409 74.9342 409.655 73.1859C407.901 71.4376 405.528 70.4522 403.051 70.4438ZM234.066 141.396H375.029V379.483H234.034L234.066 141.396Z" fill="black"/>
<path d="M106.236 94.6792V413.205C106.244 415.689 107.236 418.069 108.993 419.825C110.751 421.58 113.132 422.569 115.616 422.574H403.051C405.533 422.566 407.911 421.576 409.666 419.821C411.422 418.066 412.411 415.688 412.42 413.205V94.6792H106.236ZM234.034 141.396H375.029V379.483H234.034V141.396Z" fill="#407BFF"/>
<path opacity="0.6" d="M106.236 94.6792V413.205C106.244 415.689 107.236 418.069 108.993 419.825C110.751 421.58 113.132 422.569 115.616 422.574H403.051C405.533 422.566 407.911 421.576 409.666 419.821C411.422 418.066 412.411 415.688 412.42 413.205V94.6792H106.236ZM234.034 141.396H375.029V379.483H234.034V141.396Z" fill="white"/>
<path d="M108.022 107.139V410.114H410.698V107.139H108.022ZM375.083 379.483H234.034V141.396H375.029L375.083 379.483Z" fill="white"/>
<path opacity="0.76" d="M391.853 87.6096C394.605 87.6096 396.837 85.3782 396.837 82.6256C396.837 79.873 394.605 77.6416 391.853 77.6416C389.1 77.6416 386.869 79.873 386.869 82.6256C386.869 85.3782 389.1 87.6096 391.853 87.6096Z" fill="#407BFF"/>
<path opacity="0.76" d="M374.195 87.6096C376.948 87.6096 379.179 85.3782 379.179 82.6256C379.179 79.873 376.948 77.6416 374.195 77.6416C371.442 77.6416 369.211 79.873 369.211 82.6256C369.211 85.3782 371.442 87.6096 374.195 87.6096Z" fill="#407BFF"/>
<path opacity="0.76" d="M351.553 82.6256C351.553 83.6113 351.845 84.5749 352.393 85.3945C352.941 86.2142 353.719 86.853 354.63 87.2302C355.541 87.6074 356.543 87.7061 357.509 87.5138C358.476 87.3215 359.364 86.8468 360.061 86.1498C360.758 85.4528 361.233 84.5647 361.425 83.5979C361.618 82.6311 361.519 81.629 361.142 80.7183C360.765 79.8076 360.126 79.0292 359.306 78.4816C358.486 77.9339 357.523 77.6416 356.537 77.6416C355.215 77.6416 353.948 78.1667 353.013 79.1014C352.078 80.0361 351.553 81.3038 351.553 82.6256Z" fill="#407BFF"/>
<path d="M106.247 95.2998L412.42 95.2998V94.0485L106.247 94.0485V95.2998Z" fill="#407BFF"/>
<path d="M418.655 131.033H417.586V123.546H418.655V131.033ZM418.655 117.033H417.586V92.6152H418.655V117.033Z" fill="#407BFF"/>
<path opacity="0.4" d="M418.655 131.033H417.586V123.546H418.655V131.033ZM418.655 117.033H417.586V92.6152H418.655V117.033Z" fill="black"/>
<path d="M158.322 207.889H188.472V192.905H158.322V207.889Z" fill="#407BFF"/>
<path opacity="0.6" d="M158.322 207.889H188.472V192.905H158.322V207.889Z" fill="white"/>
<path d="M136.782 306.809H192.568V291.825H136.782V306.809Z" fill="#407BFF"/>
<path opacity="0.6" d="M136.782 306.809H192.568V291.825H136.782V306.809Z" fill="white"/>
<path d="M86.6316 133.696H202.001V118.712L86.6316 118.712V133.696Z" fill="#407BFF"/>
<path opacity="0.6" d="M86.6316 133.696H202.001V118.712L86.6316 118.712V133.696Z" fill="white"/>
<path d="M86.6316 158.423H179.851V143.439H86.6316V158.423Z" fill="#407BFF"/>
<path opacity="0.6" d="M86.6316 158.423H179.851V143.439H86.6316V158.423Z" fill="white"/>
<path d="M86.6316 183.15H192.568V168.166H86.6316V183.15Z" fill="#407BFF"/>
<path opacity="0.6" d="M86.6316 183.15H192.568V168.166H86.6316V183.15Z" fill="white"/>
<path d="M86.6316 207.889H145.798V192.905H86.6316V207.889Z" fill="#407BFF"/>
<path opacity="0.6" d="M86.6316 207.889H145.798V192.905H86.6316V207.889Z" fill="white"/>
<path d="M86.6316 232.616H192.568V217.632H86.6316V232.616Z" fill="#407BFF"/>
<path opacity="0.6" d="M86.6316 232.616H192.568V217.632H86.6316V232.616Z" fill="white"/>
<path d="M86.6316 257.343H202.001V242.359H86.6316V257.343Z" fill="#407BFF"/>
<path opacity="0.6" d="M86.6316 257.343H202.001V242.359H86.6316V257.343Z" fill="white"/>
<path d="M86.6316 282.082H167.958V267.098H86.6316V282.082Z" fill="#407BFF"/>
<path opacity="0.6" d="M86.6316 282.082H167.958V267.098H86.6316V282.082Z" fill="white"/>
<path d="M86.6316 306.809H124.268V291.825H86.6316V306.809Z" fill="#407BFF"/>
<path opacity="0.6" d="M86.6316 306.809H124.268V291.825H86.6316V306.809Z" fill="white"/>
<path d="M133.837 357.746C136.172 343.823 126.778 330.644 112.855 328.309C98.9318 325.974 85.7522 335.368 83.4173 349.291C81.0824 363.214 90.4764 376.393 104.399 378.728C118.322 381.063 131.502 371.669 133.837 357.746Z" fill="#407BFF"/>
<path opacity="0.6" d="M133.837 357.746C136.172 343.823 126.778 330.644 112.855 328.309C98.9318 325.974 85.7522 335.368 83.4173 349.291C81.0824 363.214 90.4764 376.393 104.399 378.728C118.322 381.063 131.502 371.669 133.837 357.746Z" fill="white"/>
<path d="M111.231 349.077C105.156 347.216 101.391 340.606 101.391 340.606C101.391 340.606 99.4766 340.499 99.3803 342.232C99.3432 343.401 99.5483 344.565 99.9827 345.651C100.417 346.737 101.071 347.721 101.904 348.542L98.9846 348.382C97.9432 348.325 96.8995 348.437 95.8937 348.713L94.9204 348.97C94.1181 349.193 93.4341 349.72 93.013 350.439C92.5919 351.157 92.4666 352.011 92.6637 352.82L94.1183 358.499C94.5272 360.214 95.5629 361.714 97.0216 362.703C98.4802 363.693 100.256 364.101 102.001 363.847C104.974 363.409 109.605 362.778 110.407 362.585L112.546 362.414L113.263 349.676L111.231 349.077Z" fill="white"/>
<path d="M120.749 347.312H112.568C111.93 347.312 111.413 347.829 111.413 348.467V362.927C111.413 363.565 111.93 364.082 112.568 364.082H120.749C121.387 364.082 121.905 363.565 121.905 362.927V348.467C121.905 347.829 121.387 347.312 120.749 347.312Z" fill="#407BFF"/>
<path d="M191.513 371.595C201.495 361.613 201.495 345.428 191.513 335.446C181.531 325.463 165.346 325.463 155.363 335.446C145.381 345.428 145.381 361.613 155.363 371.595C165.346 381.578 181.531 381.578 191.513 371.595Z" fill="#407BFF"/>
<path opacity="0.6" d="M191.513 371.595C201.495 361.613 201.495 345.428 191.513 335.446C181.531 325.463 165.346 325.463 155.363 335.446C145.381 345.428 145.381 361.613 155.363 371.595C165.346 381.578 181.531 381.578 191.513 371.595Z" fill="white"/>
<path d="M186.172 344.382C185.336 343.545 184.343 342.881 183.25 342.428C182.158 341.976 180.986 341.743 179.803 341.743C178.62 341.743 177.449 341.976 176.356 342.428C175.263 342.881 174.271 343.545 173.434 344.382C171.745 342.692 169.454 341.743 167.065 341.743C164.676 341.743 162.385 342.692 160.696 344.382C159.007 346.071 158.058 348.362 158.058 350.751C158.058 353.139 159.007 355.43 160.696 357.12L173.434 369.858L186.172 357.12C187.857 355.428 188.802 353.138 188.802 350.751C188.802 348.363 187.857 346.073 186.172 344.382V344.382Z" fill="#407BFF"/>
<path d="M222.194 131.033V389.858H385.382V131.033H222.194ZM375.029 379.484H234.034V141.396H375.029V379.484Z" fill="#407BFF"/>
<path opacity="0.8" d="M222.194 131.033V389.858H385.382V131.033H222.194ZM375.029 379.484H234.034V141.396H375.029V379.484Z" fill="white"/>
</svg>
